<?xml version="1.0" encoding="utf-8"?>
<!-- Generator: Adobe Illustrator 25.3.1, SVG Export Plug-In . SVG Version: 6.00 Build 0)  -->
<svg version="1.1" id="KDV-MEBEL.RU" xmlns="http://www.w3.org/2000/svg" xmlns:xlink="http://www.w3.org/1999/xlink" x="0px"
	 y="0px" viewBox="0 0 566.93 566.93" style="enable-background:new 0 0 566.93 566.93;" xml:space="preserve">
<style type="text/css">
	.st0{fill:#010202;}
	.st1{fill:#FFFFFF;}
</style>
<g>
	<path class="st0" d="M275.86,91.81c-104.11,0-188.51,84.4-188.51,188.51c0,21.55,3.63,42.25,10.28,61.53h356.46
		c6.66-19.29,10.28-39.99,10.28-61.53C464.37,176.21,379.97,91.81,275.86,91.81z"/>
	<path class="st0" d="M275.86,468.84c51.36,0,97.91-20.55,131.91-53.86H143.95C177.95,448.29,224.5,468.84,275.86,468.84z"/>
	<path class="st1" d="M143.95,414.98h263.82c20.66-20.24,36.68-45.19,46.32-73.12H97.63C107.27,369.79,123.29,394.74,143.95,414.98z
		"/>
	<path class="st1" d="M154.88,158.79v183.07h6.75v-58.86h9.77v58.86h7.29v-58.88h9.77v58.88h7.29v-58.9h9.77v58.9h7.29v-58.93h9.77
		v58.93h7.29v-58.95h9.77v58.95h7.29v-58.97h9.77v58.97h7.29v-59h9.77v59h6.1v-7.82h111.97v7.82h6.41V158.79H154.88z M161.56,164.86
		h111.97v9.77H161.56V164.86z M161.58,181.92h111.97v9.77H161.58V181.92z M161.61,208.74v-9.77h111.97v9.77H161.61z M161.63,216.03
		H273.6v9.77H161.63V216.03z M161.65,233.09h111.97v9.77H161.65V233.09z M161.68,250.15h111.97v9.77H161.68V250.15z M273.67,276.98
		H161.7v-9.77h111.97V276.98z M365.07,164.88h9.77v111.97h-9.77V164.88z M348.01,164.91h9.77v111.97h-9.77V164.91z M330.95,164.93
		h9.77V276.9h-9.77V164.93z M313.9,164.95h9.77v111.97h-9.77V164.95z M296.84,164.98h9.77v111.97h-9.77V164.98z M279.78,165h9.77
		v111.97h-9.77V165z M279.78,282.86h111.97v9.77H279.78V282.86z M279.8,299.92h111.97v9.77H279.8V299.92z M391.8,326.75H279.83
		v-9.77H391.8V326.75z M391.9,276.83h-9.77V164.86h9.77V276.83z"/>
	<g>
		<path class="st0" d="M161.95,389.6c0.68,0.68,1.01,1.35,1.01,2.03c0,0.73-0.24,1.33-0.72,1.79c-0.48,0.47-1.09,0.7-1.81,0.7
			c-0.73,0-1.42-0.34-2.07-1.01l-12.99-13.18h-0.12v11.43c0,1.04-0.26,1.76-0.78,2.16c-0.52,0.4-1.08,0.6-1.68,0.6
			c-0.6,0-1.16-0.2-1.68-0.6c-0.52-0.4-0.78-1.12-0.78-2.16v-22.78c0-1.04,0.26-1.76,0.78-2.16s1.08-0.6,1.68-0.6
			c0.6,0,1.16,0.2,1.68,0.6s0.78,1.12,0.78,2.16v9.52h0.12l12.32-11.35c0.65-0.62,1.31-0.94,1.99-0.94c0.65,0,1.2,0.21,1.64,0.64
			c0.44,0.43,0.66,0.96,0.66,1.58c0,0.78-0.34,1.46-1.01,2.03l-10.22,8.85L161.95,389.6z"/>
		<path class="st0" d="M177.01,393.77h-6.86c-1.95,0-2.92-0.97-2.92-2.92v-21.76c0-1.95,0.98-2.93,2.92-2.93h6.86
			c1.92,0,3.74,0.24,5.46,0.72c1.72,0.48,3.33,1.24,4.84,2.26c1.51,1.03,2.71,2.47,3.61,4.33c0.9,1.86,1.35,4.02,1.35,6.49
			c0,2.31-0.45,4.38-1.35,6.2c-0.9,1.82-2.09,3.27-3.59,4.35c-1.5,1.08-3.12,1.89-4.88,2.44S178.88,393.77,177.01,393.77z
			 M172.13,370.37v19.11h4.09c1.07,0,2.09-0.09,3.06-0.27c0.98-0.18,1.94-0.5,2.91-0.96c0.96-0.45,1.79-1.03,2.48-1.72
			c0.69-0.69,1.25-1.6,1.68-2.73c0.43-1.13,0.64-2.41,0.64-3.84c0-6.4-3.59-9.59-10.76-9.59H172.13z"/>
		<path class="st0" d="M218.27,369.71l-8.7,21.68c-0.73,1.82-1.86,2.73-3.39,2.73c-1.56,0-2.69-0.91-3.39-2.73l-8.58-21.65
			c-0.21-0.55-0.31-1.04-0.31-1.48c0-0.7,0.23-1.29,0.7-1.75c0.47-0.47,1.07-0.7,1.79-0.7c1.17,0,2.01,0.71,2.53,2.14l7.29,19.46
			h0.16l7.25-19.54c0.52-1.38,1.35-2.07,2.5-2.07c0.7,0,1.29,0.22,1.77,0.66c0.48,0.44,0.72,1.01,0.72,1.72
			C218.62,368.63,218.5,369.13,218.27,369.71z"/>
		<path class="st0" d="M226.89,386.16h-5.62c-0.83,0-1.41-0.21-1.74-0.64c-0.33-0.43-0.49-0.88-0.49-1.35s0.16-0.92,0.49-1.35
			s0.9-0.64,1.74-0.64h5.62c0.83,0,1.41,0.21,1.74,0.64c0.32,0.43,0.49,0.88,0.49,1.35s-0.16,0.92-0.49,1.35
			C228.3,385.95,227.72,386.16,226.89,386.16z"/>
		<path class="st0" d="M262.96,391.39c0,1.01-0.26,1.72-0.78,2.12c-0.52,0.4-1.07,0.6-1.64,0.6c-0.23,0-0.47-0.03-0.72-0.1
			c-0.25-0.07-0.51-0.19-0.78-0.37s-0.5-0.47-0.68-0.86c-0.18-0.39-0.27-0.86-0.27-1.4v-15.79h-0.08l-7.18,16.22
			c-0.65,1.53-1.61,2.3-2.89,2.3c-1.3,0-2.28-0.77-2.93-2.3l-7.06-16.15h-0.12v15.83c0,0.99-0.25,1.67-0.74,2.05
			c-0.49,0.38-1.03,0.57-1.6,0.57c-0.57,0-1.11-0.19-1.6-0.57c-0.49-0.38-0.74-1.06-0.74-2.05V369.2c0-1.27,0.32-2.16,0.98-2.65
			c0.65-0.49,1.36-0.74,2.15-0.74c1.43,0,2.57,0.96,3.43,2.89l8.35,19.3h0.08l8.38-19.3c0.86-1.92,1.99-2.89,3.39-2.89
			c0.75,0,1.45,0.25,2.09,0.74s0.96,1.38,0.96,2.65V391.39z"/>
		<path class="st0" d="M284.65,381.6h-10.69v7.8h12.05c0.91,0,1.53,0.23,1.87,0.7s0.51,0.96,0.51,1.48c0,0.52-0.17,1.01-0.51,1.48
			s-0.96,0.7-1.87,0.7h-14.04c-1.95,0-2.92-0.97-2.92-2.92v-21.76c0-1.95,0.98-2.93,2.92-2.93h13.3c0.65,0,1.17,0.14,1.56,0.43
			s0.63,0.57,0.72,0.86c0.09,0.29,0.13,0.57,0.13,0.86s-0.04,0.57-0.13,0.86c-0.09,0.29-0.33,0.57-0.72,0.86s-0.91,0.43-1.56,0.43
			h-11.31v7.02h10.69c0.91,0,1.53,0.22,1.85,0.66c0.33,0.44,0.49,0.91,0.49,1.4c0,0.29-0.04,0.57-0.14,0.84s-0.32,0.55-0.7,0.82
			C285.77,381.46,285.27,381.6,284.65,381.6z"/>
		<path class="st0" d="M302.78,393.77h-7.02c-1.95,0-2.92-0.97-2.92-2.92v-21.76c0-1.95,0.97-2.93,2.92-2.93h7.84
			c2.34,0,4.33,0.57,5.99,1.72c1.65,1.14,2.48,2.89,2.48,5.23c0,1.51-0.43,2.78-1.29,3.82c-0.86,1.04-2.03,1.78-3.51,2.22v0.08
			c1.79,0.23,3.24,0.92,4.33,2.07c1.09,1.14,1.64,2.63,1.64,4.45c0,1.43-0.29,2.69-0.88,3.76c-0.58,1.08-1.38,1.92-2.4,2.52
			c-1.01,0.6-2.12,1.04-3.32,1.33S304.16,393.77,302.78,393.77z M297.75,370.21v7.18h4.37c1.64,0,2.89-0.33,3.74-0.98
			c0.86-0.65,1.29-1.57,1.29-2.77c0-1.22-0.44-2.1-1.33-2.63c-0.88-0.53-2.26-0.8-4.13-0.8H297.75z M297.75,381.6v8.03h4.41
			c4.11,0,6.16-1.38,6.16-4.13c0-1.4-0.48-2.41-1.44-3c-0.96-0.6-2.47-0.9-4.52-0.9H297.75z"/>
		<path class="st0" d="M333.67,381.6h-10.69v7.8h12.05c0.91,0,1.53,0.23,1.87,0.7s0.51,0.96,0.51,1.48c0,0.52-0.17,1.01-0.51,1.48
			s-0.96,0.7-1.87,0.7h-14.04c-1.95,0-2.92-0.97-2.92-2.92v-21.76c0-1.95,0.97-2.93,2.92-2.93h13.3c0.65,0,1.17,0.14,1.56,0.43
			c0.39,0.29,0.63,0.57,0.72,0.86c0.09,0.29,0.14,0.57,0.14,0.86s-0.04,0.57-0.14,0.86c-0.09,0.29-0.33,0.57-0.72,0.86
			c-0.39,0.29-0.91,0.43-1.56,0.43h-11.31v7.02h10.69c0.91,0,1.53,0.22,1.85,0.66s0.49,0.91,0.49,1.4c0,0.29-0.05,0.57-0.14,0.84
			c-0.09,0.27-0.33,0.55-0.7,0.82C334.79,381.46,334.29,381.6,333.67,381.6z"/>
		<path class="st0" d="M341.86,390.84v-22.27c0-1.04,0.26-1.76,0.78-2.16c0.52-0.4,1.08-0.6,1.68-0.6c0.6,0,1.16,0.2,1.68,0.6
			c0.52,0.4,0.78,1.12,0.78,2.16v20.83h9.71c0.91,0,1.53,0.23,1.87,0.7s0.51,0.96,0.51,1.48c0,0.52-0.17,1.01-0.51,1.48
			s-0.96,0.7-1.87,0.7h-11.7C342.83,393.77,341.86,392.79,341.86,390.84z"/>
		<path class="st0" d="M366.02,388.85c0.61,0.57,0.92,1.27,0.92,2.11s-0.31,1.55-0.92,2.14c-0.61,0.6-1.35,0.9-2.2,0.9
			c-0.83,0-1.56-0.29-2.18-0.86c-0.62-0.57-0.94-1.27-0.94-2.11c0-0.83,0.3-1.55,0.92-2.14c0.61-0.6,1.35-0.9,2.2-0.9
			C364.67,388,365.41,388.28,366.02,388.85z"/>
		<path class="st0" d="M386.82,392.79l-6.79-10.73h-3.59v9.28c0,1.04-0.26,1.76-0.78,2.16c-0.52,0.4-1.08,0.6-1.68,0.6
			c-0.6,0-1.16-0.2-1.68-0.6c-0.52-0.4-0.78-1.12-0.78-2.16v-22.27c0-1.95,0.97-2.93,2.92-2.93h6.67c1.85,0,3.5,0.24,4.97,0.72
			c1.47,0.48,2.7,1.34,3.71,2.57c1,1.24,1.5,2.78,1.5,4.62c0,1.95-0.56,3.57-1.68,4.86s-2.67,2.15-4.64,2.59l5.81,8.54
			c0.39,0.57,0.58,1.13,0.58,1.68c0,0.68-0.23,1.24-0.68,1.7c-0.46,0.45-1.03,0.68-1.74,0.68
			C388.11,394.12,387.4,393.68,386.82,392.79z M376.45,370.29v7.76h4.02c3.95,0,5.93-1.34,5.93-4.02c0-1.35-0.53-2.31-1.6-2.89
			c-1.07-0.57-2.37-0.86-3.9-0.86H376.45z"/>
		<path class="st0" d="M412.76,383.43v-14.86c0-1.04,0.26-1.76,0.78-2.16c0.52-0.4,1.08-0.6,1.68-0.6c0.6,0,1.16,0.2,1.68,0.6
			c0.52,0.4,0.78,1.12,0.78,2.16v15.05c0,3.28-1.05,5.9-3.14,7.88s-4.75,2.96-7.98,2.96s-5.88-0.99-7.98-2.96s-3.14-4.6-3.14-7.88
			v-15.05c0-1.04,0.26-1.76,0.78-2.16c0.52-0.4,1.08-0.6,1.68-0.6c0.6,0,1.16,0.2,1.68,0.6c0.52,0.4,0.78,1.12,0.78,2.16v14.86
			c0,1.85,0.49,3.41,1.48,4.7c0.99,1.29,2.56,1.93,4.72,1.93s3.73-0.64,4.72-1.93S412.76,385.28,412.76,383.43z"/>
	</g>
</g>
</svg>
